<?xml version="1.0" encoding="utf-8"?>
<!-- Generator: Adobe Illustrator 22.1.0, SVG Export Plug-In . SVG Version: 6.00 Build 0)  -->
<svg version="1.1" xmlns="http://www.w3.org/2000/svg" xmlns:xlink="http://www.w3.org/1999/xlink" x="0px" y="0px"
	 viewBox="0 0 211 181" style="enable-background:new 0 0 211 181;" xml:space="preserve">
<style type="text/css">
	.st0{display:none;}
	.st1{display:inline;fill:#1D009A;}
	.st2{display:inline;fill:#EBB7FF;}
	.st3{display:inline;fill:#24D6FC;}
	.st4{display:inline;fill:#7B37E4;}
	.st5{fill:#1D009A;}
	.st6{fill:#EBB7FF;}
	.st7{fill:#7B37E4;}
	.st8{fill:#E1DCFF;}
	.st9{fill:#24D6FC;}
	.st10{fill:none;stroke:#1D009A;stroke-miterlimit:10;}
	.st11{fill:none;stroke:#1D009A;stroke-linecap:round;stroke-miterlimit:10;}
	.st12{fill:none;stroke:#1D009A;stroke-linecap:round;stroke-miterlimit:10;stroke-dasharray:2.9643083,5.9286165;}
	.st13{fill:none;stroke:#EBB7FF;stroke-miterlimit:10;}
	.st14{fill:url(#SVGID_1_);}
	.st15{fill:none;stroke:#7B37E4;stroke-miterlimit:10;}
	.st16{fill:url(#nuage_2_);}
	.st17{fill:#FFFFFF;}
	.st18{display:inline;}
	.st19{fill:none;stroke:#000000;stroke-miterlimit:10;}
	.st20{fill:#3B2189;}
	.st21{fill:#FC6147;}
	.st22{fill:#FF99BA;}
	.st23{fill:#54BBF0;}
	.st24{fill:#F9C248;}
	.st25{fill:#FC4F8D;}
	.st26{fill:#56EF9E;}
	.st27{fill:url(#SVGID_2_);}
	.st28{fill:none;stroke:#000000;stroke-width:6;stroke-miterlimit:10;}
</style>
<g id="Calque_2" class="st0">
</g>
<g id="modèle" class="st0">
</g>
<g id="Girl_homepage">
</g>
<g id="GRID" class="st0">
</g>
<g id="Logo">
	<path d="M209,19.1450005c-5.7962341,0.9810047-9.09198,1.8691368-11.1839294,3.9610767
		c-2.0919342,2.0919399-2.980072,5.3876877-3.9610748,11.1839237c-0.9810028-5.796236-1.8691254-9.0919838-3.9610748-11.1839237
		c-2.0919342-2.0919399-5.3876801-2.980072-11.1839142-3.9610767c5.7962341-0.9810047,9.09198-1.8691368,11.1839142-3.9610777
		C191.9858704,13.0919828,192.8739929,9.7962341,193.8549957,4c0.9810028,5.7962341,1.8691406,9.0919828,3.9610748,11.1839228
		C199.90802,17.2758636,203.2037659,18.1639957,209,19.1450005z"/>
	<path d="M32,160.1450043c-5.7962341,0.9810028-9.0919819,1.8691254-11.1839218,3.9610748
		c-2.0919418,2.0919342-2.9800739,5.3876801-3.9610786,11.1839142c-0.9810038-5.7962341-1.8691368-9.09198-3.9610767-11.1839142
		c-2.0919399-2.0919495-5.3876882-2.980072-11.1839228-3.9610748c5.7962346-0.9810028,9.0919828-1.8691406,11.1839228-3.9610748
		C14.9858627,154.09198,15.8739958,150.7962341,16.8549995,145c0.9810047,5.7962341,1.8691368,9.09198,3.9610786,11.1839294
		C22.9080181,158.2758636,26.2037659,159.1640015,32,160.1450043z"/>
	<path d="M49.7099991,171.5c-2.870369,0.4858093-4.5024681,0.9256134-5.5384216,1.9615784
		c-1.0359573,1.0359497-1.4757729,2.668045-1.9615784,5.5384216c-0.4858055-2.8703766-0.925621-4.5024719-1.9615746-5.5384216
		c-1.0359573-1.035965-2.6680527-1.475769-5.5384254-1.9615784c2.8703728-0.4858093,4.5024681-0.9256134,5.5384254-1.9615784
		c1.0359535-1.0359497,1.475769-2.668045,1.9615746-5.5384216c0.4858055,2.8703766,0.925621,4.5024719,1.9615784,5.5384216
		C45.207531,170.5743866,46.8396301,171.0141907,49.7099991,171.5z"/>
	<path d="M126.0600586,120.2700195C136.2099609,114.8800049,145.5900879,109.1699219,154,103.3699951v24.8900146
		c0,1.0699463-0.5800781,2.0699463-1.5200195,2.5999756l-62.0300293,35.3099365
		c-0.8999023,0.5200195-2.0100098,0.5300293-2.9199219,0.0300293l-18.9699707-10.3499756
		C67.6000977,155.3299561,67,154.3200684,67,153.2199707v-10.1199951
		C84.7099609,139.2199707,105.4499512,131.2099609,126.0600586,120.2700195z"/>
	<path d="M197.9199219,52.0200195c0-2.1801758-0.4599609-4.1801758-1.4199219-5.9799805
		c-4.8000488-9.0200195-20.8500977-10.6601563-42.5-5.8601074v-5.9499512c0-2.3200684-2.5100098-3.7600098-4.5100098-2.5898438
		l-49.4199219,28.8798828c-1.5,0.7700195-3,1.5500488-4.5100098,2.3500977
		c-2.2700195,1.2099609-4.5200195,2.4399414-6.7299805,3.6799316c-0.4501953-0.0100098-0.9101563-0.1401367-1.3200684-0.3601074
		L73.494873,58.5415039l57.9909668-33.9025879c0.1682129-0.0981445,0.3405762-0.1716309,0.5141602-0.2338867v-2.1760254
		c0-2.3168945-2.5141602-3.7592773-4.5141602-2.5900879l-59,34.4924316C67.5656738,54.6694336,67,55.6552734,67,56.7211914V60
		l0.0003662,0.0449219c0,0.001709-0.0003662,0.003418-0.0003662,0.005127v20.1499023
		c-10.5800781,7.3500977-19.8100586,14.9699707-27.0900879,22.4599609c-0.6201172,0.637207-1.2028809,1.2658691-1.7883301,1.8950195
		C37.3190918,104.2004395,36.4335938,104,35.5,104c-3.5898438,0-6.5,2.9101563-6.5,6.5
		c0,1.4116211,0.454834,2.7141113,1.2189941,3.7797852c-6.3118896,9.2001953-8.1486816,17.0852051-5.098999,22.8203125
		c3,5.6499023,10.3800049,8.5598145,21.289917,8.5598145c4.5800781,0,9.7700195-0.5100098,15.5300293-1.5500488
		c1.6601563-0.2998047,3.3400879-0.6398926,5.0600586-1.0097656v-4.0900879
		c-1.9599609,0.4399414-3.8901367,0.829834-5.7700195,1.1699219c-17.3699951,3.1201172-29.25,1.3100586-32.5799561-4.9599609
		c-2.2938232-4.3190918-0.5618896-10.8122559,4.7606201-18.5695801C34.0671387,116.8735352,34.7680664,117,35.5,117
		c3.5898438,0,6.5-2.9101563,6.5-6.5c0-1.197998-0.3297119-2.3164063-0.8950195-3.2800293
		c0.5476074-0.5871582,1.0955811-1.1745605,1.6750488-1.7700195C49.3699951,98.6799316,57.5900879,91.7900391,67,85.0898438
		v53.920166c17.1699219-3.869873,37.2199707-11.670166,57.1799316-22.2700195
		C135.3500977,110.8100586,145.3200684,104.6401367,154,98.5200195V44.25
		c8.1201172-1.8598633,15.2700195-2.7600098,21.1999512-2.7600098c4.6401367,0,8.5200195,0.5500488,11.5200195,1.630127
		c3,1.079834,5.130127,2.6899414,6.25,4.7998047c2.0512695,3.8598633,0.810791,9.5793457-3.4033203,16.4211426
		C188.916748,64.1230469,188.2233887,64,187.5,64c-3.5898438,0-6.5,2.9101563-6.5,6.5
		c0,1.3571777,0.4169922,2.6164551,1.128418,3.6586914C175.409668,81.7404785,165.9384766,90.0930176,154,98.5200195v4.8500977
		c13.0161133-8.9768066,23.6889648-18.175293,31.2585449-26.7753906C185.958252,76.8522949,186.7109375,77,187.5,77
		c3.5898438,0,6.5-2.9101563,6.5-6.5c0-1.4272461-0.4655762-2.7429199-1.2453613-3.8151855
		C196.1113281,61.2905273,197.9199219,56.315918,197.9199219,52.0200195z"/>
</g>
<g id="Calque_1">
</g>
</svg>
