<?xml version="1.0" encoding="utf-8"?>
<!-- Generator: Adobe Illustrator 22.1.0, SVG Export Plug-In . SVG Version: 6.00 Build 0)  -->
<svg version="1.1" xmlns="http://www.w3.org/2000/svg" xmlns:xlink="http://www.w3.org/1999/xlink" x="0px" y="0px"
	 viewBox="0 0 1920 966" style="enable-background:new 0 0 1920 966;" xml:space="preserve">
<style type="text/css">
	.st0{display:none;}
	.st1{display:inline;fill:#1D009A;}
	.st2{display:inline;fill:#EBB7FF;}
	.st3{display:inline;fill:#24D6FC;}
	.st4{display:inline;fill:#7B37E4;}
	.st5{fill:#1D009A;}
	.st6{fill:#EBB7FF;}
	.st7{fill:#7B37E4;}
	.st8{fill:#E1DCFF;}
	.st9{fill:#24D6FC;}
	.st10{fill:none;stroke:#1D009A;stroke-miterlimit:10;}
	.st11{fill:none;stroke:#1D009A;stroke-linecap:round;stroke-miterlimit:10;}
	.st12{fill:none;stroke:#1D009A;stroke-linecap:round;stroke-miterlimit:10;stroke-dasharray:2.9643,5.9286;}
	.st13{fill:none;stroke:#EBB7FF;stroke-miterlimit:10;}
	.st14{fill:url(#SVGID_1_);}
	.st15{fill:none;stroke:#7B37E4;stroke-miterlimit:10;}
	.st16{fill:url(#nuage_2_);}
	.st17{fill:#FFFFFF;}
	.st18{display:inline;}
	.st19{fill:none;stroke:#000000;stroke-miterlimit:10;}
	.st20{fill:#3B2189;}
	.st21{fill:#FC6147;}
	.st22{fill:#FF99BA;}
	.st23{fill:#54BBF0;}
	.st24{fill:#F9C248;}
	.st25{fill:#FC4F8D;}
	.st26{fill:#56EF9E;}
	.st27{fill:url(#SVGID_2_);}
	.st28{fill:none;stroke:#000000;stroke-width:6;stroke-miterlimit:10;}
</style>
<g id="Calque_2" class="st0">
</g>
<g id="modèle" class="st0">
</g>
<g id="Girl_homepage">
	<path id="cheveux_derrière_1_" class="st5" d="M1455,543c-9-8-26-49-26-49l30.333-77.667L1579,430c0,0,13,108,13,110s-30,25-30,25
		L1455,543z"/>
	<path id="Visage_1_" class="st6" d="M1445,447c0,0,16,13,14,29s-2,19,0,23s15,22,26,20s39-5,52-19c6.273-6.756,4-13,8-12s18,3,21-5
		s5-28-4-26s-14,21-17,17s11-50-4-53s-87-17-93,0S1445,447,1445,447z"/>
	<path id="cou_1_" class="st6" d="M1464,532c0,0,18,8,25,0c4.165-4.76,1-19,0-22s41-10,41-10s-11,33-4,40s10,7,10,7s-25,48-50,32
		S1464,532,1464,532z"/>
	<path id="cheveux_1_" class="st5" d="M1471,444c0,0-4,32,27,35c49.857,4.825,31.281-19.919,52-22c10.588-1.064,17.633-3.397,20,1
		c7,13,2,49-6,82c-1.32,5.444-3.837,11.977-7,19.217c-16.008,36.645-48.546,91.402-26,114.783c27,28,40.099-4.023,83-14
		c43-10,76,10,117-24c21.786-18.066,29-67-10-108s-118.257-7.478-131-39c-19-47,7-94-32-117s-86-10-117,21
		c-43.342,43.342-12.447,50.615-21,61c-42,51-104,5-116,86c-5.204,35.127,60,113,93,78s43-99,55-91s16-13,16-13
		s-40.426-26.338-16-33C1474,475,1471,444,1471,444z"/>
	<path class="st7" d="M1443.035,851.044c0,0,39.965-22.044,65.965-64.044s29-86,29-86l-95-79l-62-57c0,0-23,25-23,32s28,105,28,105
		L1443.035,851.044z"/>
	<polygon id="morceau_bras_1_" class="st6" points="1544,716 1527,726 1516,696 1519.305,650.112 1566,677 1566,688 	"/>
	<path id="t_shirt_1_" class="st7" d="M1371,577c0,0,40-54,66-54c8.944,0,31,8,31,11s-2.242,21.166,24,26c38,7,38-17,38-17
		s45-6,62,27c7.826,15.191-6,50-11,66s-8,54-12,53s-33-10-37-16s2-10,2-10l-19,31l-65-17L1371,577z"/>
	<path id="main_droite_1_" class="st6" d="M1396.348,578.569c11.79,0,17.231-4.535,21.766,1.814
		c4.535,6.348,19.952,16.324,18.138,19.952c-1.814,3.628-16.324,8.162-19.045,3.628s-12.697-0.907-13.604-2.721
		c-0.907-1.814,6.348-5.441,6.348-2.721c0,2.721,9.069,4.535,0.907,9.976c-8.162,5.441-17.231,6.348-21.766,10.883
		s-13.604,3.628-13.604,3.628s-11.79-23.58,0.907-32.649C1389.092,581.29,1384.558,578.569,1396.348,578.569z"/>
	<circle class="st5" cx="1538.5" cy="469.5" r="9.5"/>
	<circle class="st5" cx="1508" cy="483" r="14"/>
	<circle class="st5" cx="1527.5" cy="473.5" r="10.5"/>
	<circle class="st5" cx="1543.5" cy="458.5" r="8.5"/>
	<circle class="st5" cx="1498" cy="475" r="10"/>
	<circle class="st5" cx="1606" cy="504" r="25"/>
	<circle class="st5" cx="1590" cy="479" r="12"/>
	<circle class="st5" cx="1629" cy="646" r="23"/>
	<circle class="st5" cx="1653.5" cy="633.5" r="28.5"/>
	<circle class="st5" cx="1425" cy="458" r="17"/>
	<path id="tel_1_" class="st8" d="M1470,627c0,0-11-45-13-45s-48,0-46,7s16,63,21,64s40-5,40-5L1470,627z"/>
	<path id="bras_1_" class="st6" d="M1566,688c0,0-15,42-38,58c-8.085,5.624-26,12-34-10s-23-70-25-72s-16-11-19-14s-14-6-11-20
		s-2-23,1-25s11-4,13,0s7,16,9,18s8,9,10,6s0-5-1-7s-8-6-5-12s3,2,8,5s6,4,6,8s7,10,7,13s-1,14,2,22c1.57,4.187,39,49,42,57
		S1566,688,1566,688z"/>
	<path id="cheville_droite_1_" class="st6" d="M1178,793c0,0-5,14-5,32s2,27,2,27l33-6l7-22c0,0-4-8-3-15s1-7,1-7L1178,793z"/>
	<path id="cheville_gauche_1_" class="st6" d="M1268,807c0,0,10,25,13,36s12,28,14,28s24-20,24-21s-2-29-2-29s-3-4-5-12
		s-1.695-10.135-1.695-10.135L1268,807z"/>
	<path id="morceau_bras_droit_1_" class="st6" d="M1359,597c0,0,46,5,37,18s-15,34-15,34l-30-37L1359,597z"/>
	<path id="pantalon_1_" class="st9" d="M1460,758c0,0,11,38,2,57s-14,36-25,40s-36,18-63,0s-57-49-61-75l-3,21c0,0-11,6-20,7
		s-22-1-22-1s-7-45-10-49c0,0-20,19-26,24s-19,20-19,20s-28-2-30-5s-5-4-5-4s16-70,36-106s42-60,42-60s7-59,22-71s40-4,44,0
		s55,71,79,110S1460,758,1460,758z"/>
	<path class="st8" d="M1228,832c0,0,10,8,10,10s-18,41-21,46s-26,40-30,42s-7,0-7,0L1228,832z"/>
	<path id="chaussure_droit_1_" class="st5" d="M1189,836c6,2,7,7,12,4s4-10,6-15s7-12,10-10s4,7,5,9s9,7,9,10s-17,46-21,53
		s-20,28-22,34s-7,15-12,12s-14-6-12-11s8.567-36.933,9-43c1-14-15.046-36.42-13-40C1164,832,1183,834,1189,836z"/>
	<path class="st8" d="M1337,830c0,0,10,3,10,5s-13,50-13,53s-4,51-9,54s-9-2-9-2L1337,830z"/>
	<path id="chaussure_gauche_1_" class="st5" d="M1298,852c8-2,11-9,9-13s-2-6-1-10s5-11,8-12s7,5,12,6s15,6,15,9s-14,50-14,53
		s0,38-2,45s-2,13-5,15s-16-1-18-10s-5.768-39.612-7-43c-4-11-17.542-26.446-20-33C1269,843,1290,854,1298,852z"/>
	<path id="trait_cou_2_" class="st10" d="M1490.5,518.5c1.766-0.398,19.392-4.643,21-5c9-2,24-9,24-9"/>
	<path class="st10" d="M1313,780c0,0,24-111,12-144"/>
	<path class="st10" d="M1256.322,624.5c0,0-1.822,45,0.178,74s2,59,2,59"/>
	<path class="st10" d="M1328.2,672.039c0,0,36.3,111.461,68.3,134.461s58.771,23.5,58.771,23.5"/>
	<g>
		<g>
			<path class="st11" d="M1327.759,680.751c0,0,0.115,0.505,0.343,1.456"/>
			<path class="st12" d="M1329.546,687.952c5.463,20.947,23.387,82.339,52.954,113.548c22.736,23.999,54.886,30.415,66.541,32.004"
				/>
			<path class="st11" d="M1451.988,833.858c0.967,0.099,1.489,0.132,1.489,0.132"/>
		</g>
	</g>
	<path class="st13" d="M1471.5,458.5c0,0-4-27,9-37"/>
	<path class="st7" d="M1473.831,480.42l-3.591,11.671c-0.139,0.452,0.199,0.909,0.671,0.909h5.386c0.431,0,0.76-0.384,0.694-0.809
		l-1.796-11.671C1475.083,479.783,1474.05,479.707,1473.831,480.42z"/>
	<linearGradient id="SVGID_1_" gradientUnits="userSpaceOnUse" x1="942.9407" y1="603" x2="942.9407" y2="0">
		<stop  offset="4.381747e-07" style="stop-color:#24D6FC"/>
		<stop  offset="0.4919" style="stop-color:#7B37E4"/>
		<stop  offset="1" style="stop-color:#1D009A"/>
	</linearGradient>
	<path class="st14" d="M1787,107c141.38-37.29,101.52-78.3-8.54-107h-300.393c-5.664,1.233-6.663,2.944-7.857,10
		c-1.194-7.056-2.193-8.767-7.857-10H12.32C9.49,13.05,8,26.6,8,40.5C8,145.71,93.29,231,198.5,231
		c59.03,0,111.79-26.86,146.74-69.01c4,1.19,8.23,1.88,12.6,1.98c-0.54,3.77-0.84,7.61-0.84,11.53c0,43.91,35.59,79.5,79.5,79.5
		c8.35,0,16.39-1.29,23.95-3.68C474.8,303.04,522.21,341,578.5,341c64.48,0,117.33-49.82,122.14-113.07
		c10.03,3.92,20.94,6.07,32.36,6.07c16.75,0,32.41-4.63,45.79-12.67c-1.16,4.7-1.79,9.61-1.79,14.67
		c0,24.11,13.99,44.94,34.29,54.85c6.36,22.51,13.85,46.09,23.45,69.49c-7.88,8.03-12.74,19.02-12.74,31.16
		c0,24.58,19.92,44.5,44.5,44.5c13.5,0,25.59-6.02,33.75-15.52c6.61,37.24,39.12,65.52,78.25,65.52c10.68,0,20.86-2.12,30.16-5.94
		C1001.93,490.4,998,502.74,998,516c0,36.45,29.55,66,66,66c18.29,0,34.83-7.44,46.79-19.45c118.65,20.59,96.46-45.27,175.21-48.55
		c96-4,143,89,143,89l7-18c0,0-11-15,17-35s-1-10-37-24s-43-26,0-44c26.28-11-16.56-28.73-65.03-51.82
		c-0.56-0.26-1.12-0.54-1.68-0.8c-4.14-6.95-10.72-12.27-18.56-14.78c3.87-6.93,6.13-14.88,6.25-23.35
		c3.81,1.13,7.84,1.75,12.02,1.75c23.2,0,42-18.8,42-42c0-12.06-5.09-22.92-13.23-30.58c7.5-3.64,14.79-7.66,21.51-11.93
		c18.88-2.82,33.97-17.23,37.78-35.76c15.52-4.21,26.94-18.38,26.94-35.23c0-3.71-0.56-7.29-1.59-10.67
		c84.25,9.52,212.81,58.03,317.59,35.17C1945,226,1533,174,1787,107z M465.855,42.29c-1.962-11.593-3.552-13.183-15.145-15.145
		c11.593-1.962,13.183-3.552,15.145-15.145c1.962,11.593,3.552,13.183,15.145,15.145C469.407,29.107,467.817,30.698,465.855,42.29z
		 M537.355,282.29c-1.379-8.148-2.497-9.266-10.645-10.645c8.148-1.379,9.266-2.497,10.645-10.645
		c1.379,8.148,2.497,9.266,10.645,10.645C539.852,273.024,538.734,274.142,537.355,282.29z M795.855,126.29
		c-1.962-11.593-3.552-13.183-15.145-15.145c11.593-1.962,13.183-3.552,15.145-15.145c1.962,11.593,3.552,13.183,15.145,15.145
		C799.407,113.107,797.817,114.698,795.855,126.29z M1021.21,406c-1.36-8.037-2.463-9.14-10.5-10.5c8.037-1.36,9.14-2.463,10.5-10.5
		c1.36,8.037,2.463,9.14,10.5,10.5C1023.673,396.86,1022.57,397.963,1021.21,406z M1065.21,515c-1.36-8.037-2.463-9.14-10.5-10.5
		c8.037-1.36,9.14-2.463,10.5-10.5c1.36,8.037,2.463,9.14,10.5,10.5C1067.673,505.86,1066.57,506.963,1065.21,515z M1091.21,493
		c-1.36-8.037-2.463-9.14-10.5-10.5c8.037-1.36,9.14-2.463,10.5-10.5c1.36,8.037,2.463,9.14,10.5,10.5
		C1093.673,483.86,1092.57,484.963,1091.21,493z M1183.355,194.29c-1.337-7.901-2.548-12.394-5.4-15.245s-7.344-4.062-15.245-5.4
		c7.901-1.337,12.394-2.548,15.245-5.4c2.852-2.852,4.062-7.344,5.4-15.245c1.337,7.901,2.548,12.394,5.4,15.245
		c2.852,2.852,7.344,4.062,15.245,5.4c-7.901,1.337-12.394,2.548-15.245,5.4C1185.903,181.896,1184.692,186.389,1183.355,194.29z
		 M1201.21,208c-1.36-8.037-2.463-9.14-10.5-10.5c8.037-1.36,9.14-2.463,10.5-10.5c1.36,8.037,2.463,9.14,10.5,10.5
		C1203.673,198.86,1202.57,199.963,1201.21,208z M1282.855,348.29c-1.962-11.593-3.552-13.183-15.145-15.145
		c11.593-1.962,13.183-3.552,15.145-15.145c1.962,11.593,3.552,13.183,15.145,15.145
		C1286.407,335.107,1284.817,336.698,1282.855,348.29z M1526.21,42c-1.36-8.037-2.463-9.14-10.5-10.5
		c8.037-1.36,9.14-2.463,10.5-10.5c1.36,8.037,2.463,9.14,10.5,10.5C1528.673,32.86,1527.57,33.963,1526.21,42z M1552.21,111
		c-1.36-8.037-2.463-9.14-10.5-10.5c8.037-1.36,9.14-2.463,10.5-10.5c1.36,8.037,2.463,9.14,10.5,10.5
		C1554.673,101.86,1553.57,102.963,1552.21,111z M1602.21,70c-1.36-8.037-2.463-9.14-10.5-10.5c8.037-1.36,9.14-2.463,10.5-10.5
		c1.36,8.037,2.463,9.14,10.5,10.5C1604.673,60.86,1603.57,61.963,1602.21,70z"/>
	<path class="st15" d="M1397.5,615.5c0,0-7.5,1.5-9.5,3.5c-3.5,3.5-8,1-8,1"/>
</g>
<g id="GRID" class="st0">
</g>
<g id="Logo">
</g>
<g id="Calque_1">
</g>
</svg>
